<?xml version="1.0" standalone="no"?>
<!DOCTYPE svg PUBLIC "-//W3C//DTD SVG 20010904//EN"
 "http://www.w3.org/TR/2001/REC-SVG-20010904/DTD/svg10.dtd">
<svg version="1.0" xmlns="http://www.w3.org/2000/svg"
 width="510.000000pt" height="510.000000pt" viewBox="0 0 510.000000 510.000000"
 preserveAspectRatio="xMidYMid meet">
<metadata>
Created by potrace 1.11, written by Peter Selinger 2001-2013
</metadata>
<g transform="translate(0.000000,510.000000) scale(0.100000,-0.100000)"
fill="#000000" stroke="none">
<path d="M0 2550 l0 -2550 2550 0 2550 0 0 2550 0 2550 -2550 0 -2550 0 0
-2550z m1798 1679 c270 -29 467 -98 710 -247 l72 -44 28 18 c94 63 265 148
379 187 390 136 782 126 1334 -33 144 -42 268 -85 362 -127 l57 -26 0 -1477 0
-1478 -77 39 c-197 97 -406 190 -493 217 -359 113 -751 108 -1103 -15 -118
-40 -199 -80 -358 -174 -64 -38 -122 -69 -129 -69 -7 0 -34 13 -59 29 -76 49
-229 118 -358 161 -257 86 -464 111 -765 92 -395 -25 -651 -85 -918 -215 -58
-29 -108 -53 -112 -55 -5 -2 -8 647 -8 1442 l0 1446 28 6 c15 4 61 24 102 44
98 49 330 136 400 151 30 6 67 17 81 25 63 32 310 87 484 107 68 9 252 6 343
-4z"/>
<path d="M1320 3785 c-203 -30 -315 -62 -441 -127 -104 -53 -110 -62 -120
-160 -7 -75 -13 -1948 -6 -1948 2 0 48 18 102 41 214 87 419 123 705 123 272
0 485 -35 688 -114 149 -57 285 -158 328 -243 l19 -36 34 65 c86 167 322 296
647 356 95 17 157 21 309 21 270 0 485 -36 668 -113 38 -16 74 -27 79 -24 8 5
9 1824 0 1953 l-4 63 -64 29 c-79 36 -206 73 -321 94 -196 36 -550 29 -723
-14 -270 -68 -402 -126 -507 -225 -62 -57 -112 -135 -114 -173 0 -10 -11 6
-25 36 -86 190 -316 313 -709 382 -156 27 -414 34 -545 14z m490 -400 c248
-29 444 -92 593 -189 l47 -31 0 -633 c0 -349 -3 -632 -7 -630 -171 88 -281
125 -473 160 -155 29 -503 31 -655 5 -92 -16 -255 -56 -297 -72 -17 -7 -18 29
-18 659 l0 665 38 10 c252 68 515 87 772 56z m1988 -5 c53 -6 143 -20 200 -32
l102 -21 0 -662 0 -662 -86 23 c-174 47 -284 59 -514 58 -173 -1 -238 -5 -330
-22 -147 -27 -273 -64 -367 -107 l-73 -34 2 627 3 626 65 38 c234 137 643 205
998 168z"/>
</g>
</svg>
